<svg width="97" height="35" viewBox="0 0 97 35" fill="none" xmlns="http://www.w3.org/2000/svg">
<path d="M43.202 0.370117H49.2222L52.7203 12.5272L56.2622 0.370117H62.244L56.0676 19.1677H49.288L43.202 0.370117Z" fill="#262223"/>
<path d="M10.8919 0C5.31312 0 0.773315 4.37939 0.773315 9.76108C0.773315 15.1428 5.31312 19.5222 10.8919 19.5222C16.4707 19.5222 21.0105 15.1428 21.0105 9.76108C21.0133 4.37939 16.4735 0 10.8919 0ZM10.8782 5.93704C13.1947 5.93704 14.7519 7.47353 14.7519 9.76372C14.7519 12.0169 13.1591 13.5904 10.8782 13.5904C8.6138 13.5904 7.03474 12.0169 7.03474 9.76372C7.03474 7.51055 8.6138 5.93704 10.8782 5.93704Z" fill="#262223"/>
<path d="M28.3466 13.9314V0.370056H22.543V19.1544H33.7691V13.9314H28.3466Z" fill="#262223"/>
<path d="M41.7332 0.370117H35.9296V19.1544H41.7332V0.370117Z" fill="#262223"/>
<path d="M76.9027 5.42646V0.370056H63.7137V19.1544H76.9027V14.098H69.5146V11.9955H74.9317V7.48922H69.5146V5.42646H76.9027Z" fill="#262223"/>
<path d="M92.1757 12.3606C92.2799 12.2945 92.3868 12.2284 92.4882 12.1543C93.3052 11.5725 93.9823 10.8162 94.4593 9.94347C94.7965 9.39869 95.046 8.74548 95.1721 7.93889C95.1776 7.93096 95.1776 7.92303 95.1776 7.91509C95.2187 7.62683 95.2379 7.33593 95.2379 7.0371C95.2379 7.01065 95.2352 6.98685 95.2352 6.9604C95.2352 6.94189 95.2379 6.92074 95.2379 6.90222C95.2379 3.44049 92.4444 0.608169 88.9134 0.38867C88.8367 0.383381 88.7572 0.380736 88.6777 0.378092C88.6091 0.372803 88.5379 0.372803 88.4693 0.372803C88.4419 0.372803 88.4117 0.372803 88.3871 0.375447C88.3761 0.375447 88.3679 0.375447 88.3569 0.375447C88.3185 0.375447 88.2829 0.375447 88.2445 0.375447C88.1897 0.372803 88.1376 0.372803 88.0828 0.372803H79.0936V19.1571H84.8972V13.7622V13.6617V13.0641L86.2405 13.0693C86.3447 13.1037 86.4489 13.1355 86.5558 13.1672L87.7017 15.2247L89.9168 19.1571H96.1069L92.1757 12.3606ZM84.8945 8.764V5.54556L87.3536 5.54292C88.3377 5.54292 89.5823 5.89994 89.5823 7.00801V7.21164C89.5823 8.29326 88.8915 8.764 87.1233 8.764H84.8945Z" fill="#262223"/>
<path d="M26.9186 34.6697C29.3185 34.6697 30.7402 33.7204 30.7402 31.8092C30.7402 28.4802 25.6143 29.6022 25.6143 28.2213C25.6143 27.7651 26.1621 27.4815 26.8143 27.4815C27.6882 27.4815 28.3403 27.839 28.4968 28.5912L30.4794 28.2089C30.4794 26.791 29.0838 25.7183 26.8925 25.7183C24.8839 25.7183 23.5144 26.6307 23.5144 28.1843C23.4752 31.6859 28.6403 30.268 28.6403 31.8955C28.6403 32.4504 28.0403 32.9066 27.1012 32.9066C25.7969 32.9066 25.1969 32.2408 25.1708 31.2051L23.1492 31.5626C23.1492 33.3381 24.5448 34.6697 26.9186 34.6697Z" fill="#262223"/>
<path d="M35.0733 34.5095H37.1732V31.2791H38.6471C40.5123 31.2791 42.1426 30.7612 42.1426 28.5418C42.1426 26.3718 40.5123 25.8786 38.6471 25.8786H35.0733V34.5095ZM37.1732 29.4419V27.7157H38.4775C39.4558 27.7157 40.121 27.8514 40.121 28.5665C40.121 29.2816 39.5471 29.4419 38.4775 29.4419H37.1732Z" fill="#262223"/>
<path d="M50.9609 34.5095H53.0999L49.7218 25.8786H47.7262L44.348 34.5095H46.4871L47.074 32.9682H50.3739L50.9609 34.5095ZM47.7523 31.2051L48.7305 28.6405L49.7087 31.2051H47.7523Z" fill="#262223"/>
<path d="M60.4062 34.6574C62.4801 34.6574 63.9409 33.5847 64.3583 31.7476L62.3366 31.3037C62.1931 32.0312 61.6714 32.7586 60.4062 32.7586C58.9062 32.7586 58.3063 31.5503 58.3063 30.1817C58.3063 28.8254 58.9062 27.6294 60.4062 27.6294C61.6192 27.6294 62.0757 28.2706 62.3105 28.9734L64.3452 28.5542C63.8757 26.7417 62.3887 25.7307 60.4062 25.7307C57.7976 25.7307 56.2063 27.4568 56.2063 30.1817C56.2063 32.9189 57.7976 34.6574 60.4062 34.6574Z" fill="#262223"/>
<path d="M68.5216 34.5095H74.9519V32.5983H70.6216V31.0818H74.8084V29.1707H70.6216V27.7897H74.9519V25.8786H68.5216V34.5095Z" fill="#262223"/>
</svg>
